<?xml version="1.0" standalone="no"?>
<!DOCTYPE svg PUBLIC "-//W3C//DTD SVG 20010904//EN"
 "http://www.w3.org/TR/2001/REC-SVG-20010904/DTD/svg10.dtd">
<svg version="1.0" xmlns="http://www.w3.org/2000/svg"
 width="512.000000pt" height="512.000000pt" viewBox="0 0 512.000000 512.000000"
 preserveAspectRatio="xMidYMid meet">

<g transform="translate(0.000000,512.000000) scale(0.100000,-0.100000)"
fill="#000000" stroke="none">
<path d="M330 2560 l0 -2230 2230 0 2230 0 0 2230 0 2230 -2230 0 -2230 0 0
-2230z m930 1210 l0 -470 -190 0 -190 0 0 470 0 470 190 0 190 0 0 -470z
m1860 -280 l0 -750 -190 0 -190 0 0 750 0 750 190 0 190 0 0 -750z m560 375
l0 -375 -190 0 -190 0 0 375 0 375 190 0 190 0 0 -375z m560 -375 l0 -750
-190 0 -190 0 0 750 0 750 190 0 190 0 0 -750z m-1870 -560 l0 -190 -745 0
-745 0 0 190 0 190 745 0 745 0 0 -190z m-836 -1295 c152 -404 276 -739 276
-745 0 -6 -66 -10 -187 -10 l-188 0 -274 733 c-151 402 -277 738 -279 745 -3
9 38 12 186 12 l189 0 277 -735z m836 729 c0 -4 -104 -285 -232 -626 -150
-404 -234 -615 -239 -606 -5 8 -49 123 -99 256 l-91 241 126 333 c70 183 134
350 142 371 l15 37 189 0 c104 0 189 -3 189 -6z m1870 -184 l0 -190 -750 0
-750 0 0 190 0 190 750 0 750 0 0 -190z m-12 -552 l2 -188 -185 0 -185 0 0
-280 0 -280 -190 0 -190 0 0 280 0 280 -180 0 -180 0 0 -280 0 -280 -190 0
-190 0 0 463 c0 255 3 467 7 470 3 4 338 6 742 5 l736 -3 3 -187z"/>
</g>
</svg>
